<svg width="31" height="30" viewBox="0 0 31 30" fill="none" xmlns="http://www.w3.org/2000/svg">
<g clip-path="url(#clip0_61_258)">
<rect x="0.810547" y="0.0878906" width="29.1892" height="29.1892" rx="14.5946" transform="rotate(-0.173721 0.810547 0.0878906)" fill="#FFE75C"/>
<path d="M23.3065 29.6919C23.4118 30.1133 23.4198 30.5533 23.3297 30.9783C23.2399 31.4035 23.0543 31.8023 22.7874 32.1452C22.5204 32.4879 22.179 32.7656 21.7889 32.9569C21.3989 33.1483 20.9705 33.2484 20.5359 33.2497L14.5995 33.2677L11.8228 34.8329L11.8226 34.7498C10.5564 34.7537 9.82887 34.3407 10.3752 29.6895C10.1222 28.3826 8.94418 23.2385 8.28908 19.4005C7.69726 15.8944 9.00103 14.6035 12.6065 12.5584C14.1287 7.98726 18.1146 8.24501 18.8909 10.9826C19.6672 13.7201 22.2348 25.3569 23.3065 29.6919Z" fill="#66BCFF"/>
<path d="M23.3054 29.6921C22.7589 27.4521 21.7915 23.3036 20.8872 19.4248L16.2367 19.0861L12.6537 21.6293L10.5864 24.4169L9.53217 25.8524C9.9112 27.6363 10.2268 29.0883 10.3532 29.7106C9.80685 34.3618 10.5346 34.7748 11.8007 34.7709L15.4702 33.203L23.9786 32.5753C23.7682 31.6419 23.5367 30.667 23.3054 29.6921Z" fill="#EB459F"/>
<path d="M13.7856 27.3846C14.0427 25.8354 13.9029 24.5215 13.4731 24.4501C13.0434 24.3788 12.4866 25.5769 12.2293 27.1263C11.9721 28.6756 12.112 29.9893 12.5417 30.0606C12.9714 30.132 13.5284 28.9338 13.7856 27.3846Z" fill="black"/>
<path d="M11.0619 23.5435C11.2683 23.1692 11.4957 22.7949 11.723 22.4621C14.0582 19.0717 16.2555 18.1517 18.3727 18.1453L21.0088 18.1373C21.0482 18.1382 21.0866 18.1485 21.1213 18.167C21.1559 18.1856 21.1856 18.2123 21.2079 18.2446C21.2302 18.2769 21.2447 18.314 21.25 18.3531C21.2553 18.3921 21.2513 18.4317 21.2383 18.4687L20.8881 19.4246C16.8406 19.4369 15.408 19.3167 12.0561 22.8555L10.5873 24.4167L11.0619 23.5435Z" fill="#D11583"/>
<path d="M12.0564 22.98C10.6665 23.2333 9.56861 23.9631 8.94981 25.2519C8.77405 25.6094 8.51968 25.9224 8.20534 26.1674L4.47738 28.8979C4.05838 29.1972 3.76706 29.6429 3.66086 30.1468C3.55487 30.6507 3.64177 31.176 3.90444 31.6188C4.08763 31.9296 4.34932 32.1866 4.66308 32.3641C4.97705 32.5417 5.33206 32.6336 5.6926 32.6304L7.24935 32.6257C10.4819 30.8101 11.9727 29.5809 12.7385 28.8729C13.5044 28.1648 14.3516 26.8961 14.2019 25.4435C14.0522 23.991 13.6331 22.6846 12.0564 22.98Z" fill="white"/>
<path d="M13.1862 12.2459C12.6856 11.4172 12.018 10.3191 11.7674 9.80094C11.5167 9.28278 10.9151 9.40914 11.7732 11.7313C9.69515 10.9488 9.26014 11.2408 9.15724 11.5317C9.05433 11.8226 9.51142 11.9665 10.3847 12.462C11.258 12.9575 12.1939 13.5566 12.1939 13.5566L13.1862 12.2459Z" fill="#66BCFF"/>
<path d="M15.345 12.3015C15.6966 11.8646 15.8199 11.3868 15.6118 11.2214C15.4037 11.0559 15.1754 11.1397 14.8653 11.5557C14.7316 11.7249 14.5865 11.8849 14.4309 12.0345C14.079 12.3676 14.1628 12.6165 14.3293 12.7613C14.4958 12.906 14.9935 12.7385 15.345 12.3015Z" fill="black"/>
<path d="M18.8692 11.0032C18.8692 11.0032 16.3957 9.88987 15.335 9.20811C14.2744 8.52635 13.7316 7.51091 14.2082 7.23963C14.6848 6.96834 15.6002 7.60903 16.2462 8.43734C16.221 6.96368 16.4691 6.6516 16.8634 6.62965C17.2578 6.60769 17.3008 7.18873 17.3241 8.01894C17.3474 8.84914 17.4939 9.18081 18.1183 9.73935C18.4921 10.0739 18.7541 10.515 18.8692 11.0032Z" fill="#3442D9"/>
<path d="M9.81963 17.9228C9.23845 17.9245 8.73878 17.4279 9.19278 16.5547C9.64678 15.6815 11.1384 14.8052 11.8639 14.4709C12.5894 14.1366 12.9227 14.4677 12.9442 14.7167C12.9657 14.9657 12.8629 15.3397 12.3459 16.0055C11.829 16.6713 10.8782 17.9195 9.81963 17.9228Z" fill="white"/>
<path d="M10.2767 17.8587L9.92419 17.922L9.42087 16.2215L9.71051 15.9093L10.2767 17.8587Z" fill="#8CD9FF"/>
<path d="M11.5595 16.9414L11.27 17.2329L10.6823 15.1382L10.993 14.9297L11.5595 16.9414Z" fill="#8CD9FF"/>
<path d="M12.7179 15.4852L12.449 15.8597L12.0295 14.408L12.3822 14.3446L12.7179 15.4852Z" fill="#8CD9FF"/>
<path d="M12.2578 14.1582C12.6426 14.3405 13.0383 14.4989 13.4426 14.632" stroke="black" stroke-linecap="round" stroke-linejoin="round"/>
<path d="M21.5387 22.1624C21.1404 21.8486 20.6531 21.6684 20.1466 21.6477C19.0672 21.651 18.4685 22.7114 18.264 23.7291C18.2311 23.8924 18.1433 24.0392 18.0152 24.1454C17.887 24.2517 17.7263 24.3105 17.5601 24.3125L17.4148 24.3129C17.3211 24.296 17.2317 24.2603 17.1523 24.2078C17.0726 24.1556 17.0046 24.0877 16.952 24.0083C16.8995 23.929 16.8633 23.8399 16.8462 23.7463C16.8289 23.6525 16.8309 23.5564 16.8518 23.4636C17.2402 21.4905 18.5232 20.2204 20.1423 20.2155C20.41 20.218 20.6691 20.3115 20.8772 20.4806C21.0851 20.6496 21.2294 20.8843 21.2867 21.1461L21.5387 22.1624Z" fill="white"/>
<path d="M23.3066 29.6927C23.353 29.8781 23.3611 30.0711 23.3305 30.2597C23.2999 30.4484 23.2316 30.629 23.1291 30.7904C23.0266 30.9518 22.8926 31.0906 22.7349 31.1986C22.5773 31.3068 22.3992 31.3817 22.2119 31.4188L21.6931 31.4619C20.51 31.4655 19.283 30.7635 18.3245 29.5417C18.2672 29.4655 18.2252 29.3789 18.2012 29.2866C18.1773 29.1941 18.1718 29.098 18.185 29.0035C18.1982 28.909 18.2299 28.818 18.2782 28.7359C18.3266 28.6535 18.3907 28.5817 18.4669 28.5242C18.5418 28.464 18.6285 28.4197 18.7212 28.3941C18.8139 28.3687 18.911 28.3624 19.0063 28.3756C19.1016 28.389 19.1931 28.4215 19.2754 28.4717C19.3576 28.5217 19.4288 28.5879 19.4842 28.6664C20.151 29.5154 20.9623 30.0319 21.6888 30.0297C22.4153 30.0275 22.8499 29.611 23.1596 29.0704C23.2018 29.2986 23.2645 29.506 23.3066 29.6927Z" fill="#2331B5"/>
<path d="M21.8966 23.7598C21.7501 23.7611 21.6076 23.8078 21.4887 23.8937C21.3701 23.9796 21.281 24.1004 21.2339 24.2392L20.3692 26.5874C20.2937 26.8078 20.2961 27.0476 20.376 27.2665C20.4562 27.4855 20.6089 27.6702 20.8087 27.7899C20.8992 27.8451 21.001 27.8795 21.1063 27.8899C21.2117 27.9006 21.3182 27.8872 21.4179 27.851C21.5174 27.8148 21.6076 27.7566 21.6816 27.6808C21.7557 27.605 21.8117 27.5135 21.8454 27.4132L22.4015 25.8962C22.2541 25.2117 22.0857 24.5065 21.8966 23.7598Z" fill="#5865F2"/>
<path d="M20.8096 27.7903C20.6098 27.6706 20.4571 27.4859 20.3769 27.2669C20.297 27.048 20.2946 26.8082 20.3701 26.5878L20.6172 25.9436C20.6586 25.8311 20.7239 25.729 20.8083 25.6441C20.8929 25.5593 20.9949 25.4939 21.107 25.452C21.2194 25.4104 21.3393 25.3934 21.4589 25.4024C21.5783 25.4113 21.6944 25.4461 21.799 25.5041C21.9701 25.6034 22.1014 25.7589 22.17 25.9445C22.2387 26.1298 22.2407 26.3332 22.1757 26.52L21.8463 27.4136C21.8126 27.5139 21.7566 27.6054 21.6825 27.6812C21.6084 27.757 21.5183 27.8152 21.4188 27.8514C21.3191 27.8876 21.2126 27.901 21.1072 27.8903C21.0019 27.8798 20.9001 27.8457 20.8096 27.7903Z" fill="#FFE75C"/>
</g>
<defs>
<clipPath id="clip0_61_258">
<rect x="0.810547" y="0.0878906" width="29.1892" height="29.1892" rx="14.5946" transform="rotate(-0.173721 0.810547 0.0878906)" fill="white"/>
</clipPath>
</defs>
</svg>
