<svg width="31" height="30" viewBox="0 0 31 30" fill="none" xmlns="http://www.w3.org/2000/svg">
<g clip-path="url(#clip0_61_261)">
<rect x="0.923828" y="0.722656" width="29.1892" height="29.1892" rx="14.5946" transform="rotate(-0.173721 0.923828 0.722656)" fill="#FF78B9"/>
<path d="M24.7233 34.9586C25.7089 32.8758 23.0388 29.5458 18.7593 27.5204C14.4799 25.4951 10.2116 25.5416 9.22597 27.6245C8.24032 29.7071 10.9104 33.0373 15.19 35.0627C19.4693 37.0878 23.7376 37.0412 24.7233 34.9586Z" fill="black"/>
<path d="M25.2431 23.4409C23.9746 22.6559 23.9124 22.6769 23.2028 21.4129C22.4932 20.1489 21.5988 19.5289 20.5605 19.3867L21.8757 28.7026C24.5765 29.4831 26.2329 28.1082 26.6024 26.7578C26.9719 25.4075 26.5324 24.2257 25.2431 23.4409Z" fill="#3442D9"/>
<path d="M23.9801 24.669C23.6227 23.1548 22.6833 21.3934 21.5791 20.0683C21.1835 19.5896 20.9022 19.0269 20.7565 18.423C20.6108 17.8193 20.6046 17.1902 20.7383 16.5837L21.1886 14.5066C21.5054 13.065 21.3296 11.5589 20.6897 10.2289C20.0497 8.89882 18.9825 7.82165 17.6585 7.16941C16.8987 6.7982 16.0723 6.58197 15.228 6.53332C13.6391 6.42177 12.0694 6.93373 10.8518 7.96048C9.6342 8.98726 8.86461 10.4481 8.70626 12.0329C8.67262 12.3014 8.65954 12.5721 8.66721 12.8425L8.66991 13.7351L8.72275 17.4711C8.77288 19.1496 8.42216 20.8156 7.69965 22.3313C7.39967 22.9327 7.17181 23.5675 7.0204 24.2223L17.2031 34.985C22.037 34.1608 25.0533 29.4813 23.9801 24.669Z" fill="#3442D9"/>
<path d="M17.2242 34.9855C22.0373 34.1614 25.0536 29.482 23.9804 24.6696C23.6439 23.2384 22.7879 21.5805 21.7669 20.2966" stroke="black" stroke-miterlimit="10" stroke-linecap="round"/>
<path d="M20.7433 24.9903C21.6933 23.4099 22.0676 23.6163 23.771 24.0678C25.142 24.4165 26.728 27.2138 24.6359 28.6317C22.5437 30.0495 18.2653 29.2114 20.7433 24.9903Z" fill="#3442D9"/>
<path d="M15.9968 20.3528C16.1877 20.2058 16.2176 19.9249 16.0638 19.7249C15.91 19.525 15.6307 19.4821 15.44 19.6288C15.2493 19.7757 15.2192 20.0566 15.373 20.2565C15.5268 20.4565 15.8061 20.4995 15.9968 20.3528Z" fill="black"/>
<path d="M18.6123 20.5069C18.803 20.3602 18.8331 20.0791 18.6793 19.8793C18.5255 19.6794 18.2462 19.6363 18.0552 19.7832C17.8645 19.9299 17.8344 20.211 17.9882 20.4109C18.142 20.6107 18.4213 20.6539 18.6123 20.5069Z" fill="black"/>
<path d="M18.3418 20.1826C20.5683 22.0025 19.659 23.3129 21.4522 26.0059" stroke="white" stroke-miterlimit="10" stroke-linecap="round"/>
<path d="M15.843 24.2788C17.2101 23.3199 17.6244 23.0488 18.1434 23.068L19.4929 23.1884L19.1567 28.6692L15.7315 28.5758L15.843 24.2788Z" fill="#FFC619"/>
<path d="M22.4797 22.8677C22.5055 22.7952 22.5137 22.7175 22.5044 22.6411C22.495 22.5648 22.468 22.4916 22.4257 22.4274C22.3831 22.3632 22.3265 22.3096 22.26 22.271C22.1932 22.2324 22.1186 22.2097 22.0418 22.2048L19.7576 21.8796C19.5919 21.8625 19.4251 21.9028 19.2857 21.994C19.1461 22.0851 19.0421 22.2214 18.9911 22.3801L17.7187 27.158C17.6931 27.2308 17.6847 27.3082 17.694 27.3846C17.7034 27.4609 17.7304 27.5341 17.7727 27.5983C17.8153 27.6625 17.8719 27.7161 17.9386 27.7547C18.0052 27.7934 18.0798 27.816 18.1566 27.8209L20.4408 28.1461C20.6067 28.1632 20.7733 28.1229 20.9129 28.0318C21.0523 27.9406 21.1563 27.8043 21.2073 27.6456L22.4797 22.8677Z" fill="black"/>
<path d="M22.3753 22.3913L22.6253 22.6811L21.9405 22.7454L22.3753 22.3913Z" fill="black"/>
<path d="M23.5054 25.5423C23.2134 25.0657 22.9417 24.4646 22.1526 24.3425L22.0518 25.3391L23.5054 25.5423Z" fill="#FFC619"/>
<path d="M22.7103 23.1377C22.7319 23.0652 22.7373 22.9888 22.726 22.9139C22.7148 22.839 22.6874 22.7674 22.6457 22.7043C22.604 22.6411 22.549 22.5879 22.4846 22.5482C22.4201 22.5086 22.3476 22.4835 22.2724 22.4748L19.9674 22.1497C19.8024 22.1362 19.6373 22.1783 19.4987 22.2688C19.3599 22.3595 19.2551 22.4935 19.2009 22.6501L17.9285 27.4281C17.9069 27.5006 17.9016 27.577 17.9128 27.6519C17.924 27.7268 17.9514 27.7983 17.9931 27.8615C18.0348 27.9247 18.0898 27.9781 18.1542 28.0175C18.2189 28.0572 18.2912 28.0823 18.3664 28.091L20.6713 28.3953C20.8329 28.4214 20.9984 28.3867 21.136 28.2982C21.2735 28.2096 21.3738 28.0735 21.4171 27.9157L22.7103 23.1377Z" fill="white"/>
<path d="M22.0099 25.028L22.9444 25.1705C23.1338 25.1909 23.3074 25.2848 23.4282 25.4318C23.549 25.579 23.6071 25.7677 23.5903 25.9573C23.5858 26.0559 23.5608 26.1525 23.5168 26.2408C23.4727 26.329 23.4106 26.4072 23.3346 26.4699C23.2584 26.5328 23.1702 26.579 23.075 26.6054C22.98 26.632 22.8804 26.6384 22.7828 26.6239L22.0975 26.5222C21.8846 26.4924 21.6876 26.3929 21.5368 26.2396C21.3863 26.086 21.2906 25.8872 21.2646 25.6737C21.2592 25.5787 21.2757 25.4836 21.3128 25.3958C21.3499 25.3081 21.4067 25.2301 21.4785 25.1676C21.5506 25.1054 21.636 25.0603 21.7281 25.0361C21.8202 25.012 21.9167 25.0092 22.0099 25.028Z" fill="#FFC619"/>
<path d="M21.7028 26.4194L22.3466 26.5212C22.4544 26.5346 22.5578 26.571 22.65 26.6282C22.7421 26.6854 22.8206 26.7622 22.88 26.8527C22.9397 26.9435 22.9788 27.0461 22.9947 27.1534C23.0106 27.2606 23.0028 27.37 22.9722 27.4741C22.9285 27.6416 22.8231 27.7863 22.677 27.8792C22.531 27.972 22.3553 28.0061 22.1849 27.9747L21.7904 27.9136C21.575 27.8846 21.3751 27.786 21.221 27.6328C21.0669 27.4797 20.9671 27.2803 20.9368 27.0652C20.9305 26.9678 20.9472 26.8706 20.9853 26.7809C21.0237 26.6913 21.0824 26.6118 21.1569 26.5489C21.2314 26.4862 21.3195 26.4417 21.4145 26.4192C21.5093 26.3967 21.6081 26.3968 21.7028 26.4194Z" fill="#FFC619"/>
<path d="M19.6966 28.7921L17.4539 28.4875L17.555 27.5739L19.7977 27.8992L19.6966 28.7921Z" fill="#FFC619"/>
<path d="M20.2247 25.1584L18.8126 24.9552C18.7453 24.9462 18.6821 24.918 18.6303 24.8741C18.5787 24.8301 18.5408 24.7721 18.5213 24.707L18.3956 24.3337L18.2895 23.566L17.5297 26.2667L19.8139 26.5919C20.0265 26.6197 20.2423 26.575 20.4265 26.4653C20.6107 26.3556 20.7525 26.1872 20.8292 25.9869C20.8536 25.8919 20.8566 25.7927 20.8382 25.6965C20.8197 25.6002 20.7802 25.5092 20.7224 25.4301C20.6647 25.3508 20.59 25.2854 20.5041 25.2385C20.418 25.1915 20.3227 25.1642 20.2247 25.1584Z" fill="#FFC619"/>
<path d="M19.772 26.5712L17.5293 26.2666L17.6376 27.7608L19.3612 28.0046C19.5715 28.0353 19.7858 27.9915 19.9673 27.8812C20.1488 27.7708 20.2861 27.6004 20.3557 27.3997C20.3838 27.3062 20.3904 27.2076 20.3749 27.1111C20.3593 27.0146 20.3218 26.9232 20.2658 26.8432C20.2095 26.7635 20.1358 26.6975 20.0501 26.6502C19.9647 26.6032 19.8695 26.576 19.772 26.5712Z" fill="#FFC619"/>
<path d="M35.7 35.6767C35.7555 33.4348 33.9071 33.0876 32.6385 32.3026C31.37 31.5177 29.8704 29.8617 28.3103 28.7456C26.7501 27.6294 25.401 27.6543 22.7674 28.4718L25.7949 34.316C27.4995 35.1827 27.8761 36.1363 28.7933 37.4205C29.7104 38.7046 30.9366 39.1991 32.1605 38.967C32.8072 40.0237 32.9325 40.2724 33.8656 39.9374C34.7986 39.6025 36.3324 38.8921 36.7439 37.6662C37.1553 36.4403 36.5527 36.2346 35.7 35.6767Z" fill="#66BCFF"/>
<path d="M25.6588 30.8704C25.3825 31.7624 25.2045 32.6816 25.1274 33.6119" stroke="black" stroke-width="2" stroke-miterlimit="10" stroke-linecap="round"/>
<path d="M26.9172 41.6604C25.0335 43.3682 23.4338 42.8956 22.6863 42.8149C21.9388 42.7341 22.0202 42.1942 21.9565 41.7377C21.8929 41.2813 21.8493 40.5964 21.8493 40.5964C19.9601 40.4776 19.7278 39.1914 19.6829 38.0499C19.6379 36.9084 19.3468 36.7433 19.199 35.9342C16.9204 35.532 14.7651 34.6107 12.8999 33.2412C11.0347 31.8719 9.51007 30.0912 8.4438 28.0377L10.4113 26.5995L14.8204 29.4506C17.7853 28.3415 19.4234 27.7761 21.0213 27.6674C22.6193 27.5588 24.1986 28.156 24.7243 30.3754C25.2499 32.5947 25.3143 33.2795 25.7949 34.3367C25.9202 34.6061 26.1289 34.9791 26.3377 35.3729C26.9225 36.5542 27.5294 38.2129 26.3518 40.0224C26.4977 40.5821 26.6868 41.13 26.9172 41.6604Z" fill="#8CD9FF"/>
<path d="M11.6726 32.2204C11.6059 30.7469 12.1632 29.7073 13.1798 29.5382L10.6005 27.7609L8.73488 28.5761C9.21631 29.9031 10.4454 31.3523 11.6726 32.2204Z" fill="black"/>
<path d="M15.8823 23.9887C15.2788 23.4716 14.8222 23.5145 14.0967 23.8281C13.3266 23.1247 12.3299 23.0239 11.2932 23.3799C10.2564 23.7359 8.65958 24.2182 7.72629 24.4701C7.67425 24.4898 7.61759 24.4939 7.56318 24.4822C7.50876 24.4703 7.45886 24.4433 7.4193 24.4042C7.37995 24.3649 7.35261 24.3151 7.34061 24.2608C7.32841 24.2064 7.33239 24.1498 7.35153 24.0976L8.02895 21.6047C5.81302 23.272 5.0973 26.8236 5.80888 28.7518C6.52046 30.68 9.59238 30.65 10.5663 30.1073C11.5402 29.5647 11.8718 29.3976 12.9933 29.6018C14.1148 29.806 14.987 29.9486 16.4574 28.8233L17.3283 28.5301C17.6546 26.6402 17.3599 25.2711 15.8823 23.9887Z" fill="#3442D9"/>
<path d="M15.8825 23.9881C15.279 23.471 14.8225 23.5139 14.0969 23.8275C13.3268 23.1241 12.3302 23.0233 11.2934 23.3793C10.2566 23.7354 8.65982 24.2176 7.72653 24.4695" stroke="black" stroke-miterlimit="10" stroke-linecap="round"/>
<path d="M14.0977 23.8271C14.7191 24.3054 15.2372 24.9045 15.6209 25.5881C16.0047 26.2719 16.2461 27.0263 16.3307 27.8057" stroke="black" stroke-miterlimit="10" stroke-linecap="round"/>
<path d="M20.3856 23.1856C20.3949 23.157 20.3979 23.1267 20.3943 23.0966C20.3907 23.0667 20.3806 23.0379 20.3646 23.0124C20.3487 22.9867 20.3275 22.9648 20.3023 22.9482C20.2771 22.9317 20.2487 22.9208 20.2188 22.9163L20.0112 22.9169C19.9535 22.9045 19.8931 22.915 19.843 22.9461C19.7926 22.9772 19.7564 23.0265 19.7419 23.0838L19.5571 23.7694C19.5477 23.7997 19.5453 23.8317 19.5502 23.863C19.555 23.8943 19.567 23.924 19.5849 23.9501C19.603 23.976 19.627 23.9975 19.6546 24.0129C19.6823 24.0282 19.7132 24.0371 19.7448 24.0386L19.9523 24.038C20.007 24.0449 20.0621 24.0316 20.1079 24.001C20.1535 23.9703 20.1865 23.9244 20.2009 23.8712L20.3856 23.1856Z" fill="#29CC7A"/>
<path d="M17.051 19.211C17.2105 18.8857 17.4465 18.6039 17.7385 18.3898C18.0307 18.1756 18.3705 18.0354 18.7286 17.9813C18.7701 17.9811 18.7908 17.9396 18.7699 17.9189C18.4971 16.9234 18.6199 16.3626 18.9706 15.635C18.9741 15.6297 18.9764 15.6237 18.9772 15.6174C18.978 15.6112 18.9773 15.6048 18.9755 15.5988C18.9734 15.5928 18.97 15.5873 18.9654 15.5828C18.9611 15.5783 18.9557 15.5749 18.9496 15.5728C17.7858 15.0782 17.3474 14.2492 17.2209 13.6269C17.2 13.5854 17.1377 13.5649 17.1171 13.6064C16.6013 14.6459 15.8957 14.6895 15.2935 14.6083C15.252 14.6084 15.2314 14.65 15.2522 14.6707C15.8577 15.8313 15.4243 16.6628 14.8241 17.2459C14.821 17.254 14.8194 17.2627 14.8198 17.2715C14.8203 17.2803 14.8226 17.2888 14.8265 17.2966C14.8305 17.3045 14.8359 17.3114 14.8428 17.3169C14.8494 17.3224 14.8573 17.3265 14.8659 17.3288C16.0289 17.5328 16.6539 18.2989 16.9472 19.1905C16.9681 19.232 17.0304 19.2526 17.051 19.211Z" fill="#FFC619"/>
<path d="M19.7715 26.5707L18.5879 26.4082" stroke="black" stroke-miterlimit="10" stroke-linecap="round"/>
<path d="M21.9316 26.502L22.5962 26.6037" stroke="black" stroke-miterlimit="10" stroke-linecap="round"/>
<path d="M17.1792 13.5848C17.6946 12.4208 17.6507 11.6114 17.504 11.1552" stroke="black" stroke-miterlimit="10" stroke-linecap="round"/>
<path d="M18.8473 15.6146C19.1712 15.6633 19.502 15.6416 19.8168 15.5511C20.1319 15.4606 20.4236 15.3034 20.6723 15.0902" stroke="black" stroke-miterlimit="10" stroke-linecap="round"/>
<path d="M17.0525 19.2107C17.0546 19.3652 17.0341 19.5193 16.9916 19.6676" stroke="black" stroke-miterlimit="10" stroke-linecap="round"/>
<path d="M14.9293 17.2661C14.163 17.8081 13.0003 17.7286 12.1901 17.482" stroke="black" stroke-miterlimit="10" stroke-linecap="round"/>
<path d="M15.294 14.6079C15.0015 14.0068 14.4598 13.3235 13.9609 13.0967" stroke="black" stroke-miterlimit="10" stroke-linecap="round"/>
<path d="M18.7715 17.918C19.0397 18.0601 19.3264 18.164 19.6235 18.2267" stroke="black" stroke-miterlimit="10" stroke-linecap="round"/>
<path d="M16.5434 15.7047C16.9004 17.0736 17.3568 16.9892 17.5631 16.5734C17.7694 16.1577 17.9131 15.6383 18.2454 15.6788C18.5776 15.7193 18.4963 16.3007 18.1045 17.1322C17.7126 17.9637 17.0697 18.1524 16.4656 17.4278C15.8614 16.7031 15.8385 15.9975 15.8163 15.4994C15.794 15.0013 16.3125 14.8751 16.5434 15.7047Z" fill="#C40655"/>
<path d="M15.725 20.0243C15.9828 22.8879 14.5339 24.2623 14.0859 27.1073" stroke="white" stroke-miterlimit="10" stroke-linecap="round"/>
<path d="M19.0326 35.9549C18.6552 34.7314 18.4824 32.4902 19.4935 30.5153" stroke="black" stroke-width="2" stroke-miterlimit="10" stroke-linecap="round"/>
<path d="M8.53599 24.2385L7.00151 24.7413" stroke="black" stroke-miterlimit="10" stroke-linecap="round"/>
<path d="M23.791 24.0059L24.8297 24.2933" stroke="black" stroke-miterlimit="10" stroke-linecap="round"/>
</g>
<defs>
<clipPath id="clip0_61_261">
<rect x="0.923828" y="0.722656" width="29.1892" height="29.1892" rx="14.5946" transform="rotate(-0.173721 0.923828 0.722656)" fill="white"/>
</clipPath>
</defs>
</svg>
