<svg width="31" height="30" viewBox="0 0 31 30" fill="none" xmlns="http://www.w3.org/2000/svg">
<g clip-path="url(#clip0_61_260)">
<rect x="0.839844" y="0.172852" width="29.1892" height="29.1892" rx="14.5946" transform="rotate(-0.173721 0.839844 0.172852)" fill="#7196FF"/>
<path d="M11.815 25.0899L11.1758 25.7276L15.846 30.3304L16.4853 29.6925L11.815 25.0899Z" fill="#2E3338"/>
<path d="M14.7253 25.0879L14.0859 25.7256L18.7561 30.3283L19.3955 29.6906L14.7253 25.0879Z" fill="#2E3338"/>
<path d="M19.9684 24.2735C21.1705 23.0686 21.912 21.4864 22.0652 19.7985C22.2184 18.1105 21.7738 16.4225 20.8079 15.0244L17.7781 10.6351L14.2097 10.6459L14.2267 16.2564C14.2282 16.7437 14.0342 17.2117 13.6878 17.5574C13.3412 17.903 12.8704 18.098 12.3789 18.0995L6.64172 18.1169L6.64558 19.3876C6.65124 21.2559 7.40384 23.0455 8.73831 24.3644C10.0728 25.6833 11.8804 26.4237 13.7646 26.4231L14.8095 26.4199C16.7454 26.3979 18.5963 25.6279 19.9684 24.2735Z" fill="#FFD836"/>
<path d="M17.7737 8.58293C18.7201 8.58006 19.6288 8.95009 20.3001 9.61162C20.9713 10.2732 21.35 11.172 21.3528 12.1104L21.3556 13.0292L14.2186 13.0508L14.2157 12.1125C14.2182 11.1774 14.5937 10.2813 15.2605 9.61998C15.9271 8.95861 16.8306 8.58578 17.7737 8.58293Z" fill="#FFD836"/>
<path d="M22.3951 11.7157C22.5674 11.8836 22.7036 12.0843 22.7957 12.3057C22.8879 12.5271 22.9341 12.7647 22.9313 13.0043L19.5205 13.0146C19.3938 13.0125 19.2703 12.9737 19.1656 12.9029C19.0607 12.8322 18.979 12.7327 18.9305 12.6165C18.882 12.5003 18.8687 12.3727 18.8924 12.2491C18.9161 12.1256 18.9756 12.0117 19.0637 11.9213L19.7518 11.235L19.7488 10.2575C19.7483 10.1312 19.7971 10.0097 19.885 9.91828C19.973 9.82691 20.0932 9.77283 20.2204 9.7674C20.3504 9.77399 20.4749 9.82154 20.5757 9.90315L22.3951 11.7157Z" fill="#FF9A15"/>
<path d="M17.7734 8.58233L16.7284 8.5855C15.4423 8.58779 14.2076 8.08555 13.2937 7.1884L12.7793 6.62305L12.7804 6.97493C12.7838 8.11554 13.2441 9.20804 14.0601 10.0121C14.8758 10.8162 15.9805 11.2659 17.1308 11.2625L17.7617 11.2605L17.7734 8.58233Z" fill="#FFD836"/>
<path d="M12.7109 10.2002L15.5696 10.1915L15.5782 13.0261L12.7109 10.2002Z" fill="#FFD836"/>
<path d="M8.30612 20.8489C8.84268 21.9765 9.79672 22.8557 10.9701 23.3039C12.1434 23.7521 13.4459 23.735 14.6068 23.2558C15.7676 22.7767 16.6978 21.8725 17.204 20.7311C17.7101 19.5898 17.7533 18.299 17.3246 17.1269L8.30612 20.8489Z" fill="#FF9A15"/>
<path d="M3.47852 14.998L5.7134 17.298C6.00673 17.5834 6.24023 17.9236 6.40038 18.2988C6.56066 18.6742 6.64435 19.0771 6.64666 19.4846L8.24362 19.4798L8.24024 18.3656C8.23647 17.7429 8.02465 17.1391 7.63787 16.6486C7.2511 16.1581 6.71125 15.8086 6.10272 15.6548L3.47852 14.998Z" fill="#FFD836"/>
<path d="M7.68998 18.817L7.51307 18.9934C7.4405 19.0629 7.34889 19.1096 7.24967 19.1276C7.15044 19.1457 7.04803 19.1344 6.95536 19.095C6.86255 19.0556 6.78365 18.99 6.72837 18.9063C6.6731 18.8227 6.64388 18.7247 6.64452 18.6246L6.62893 13.4834L7.67694 14.5164C8.24705 15.0885 8.56782 15.8596 8.57026 16.6639C8.5727 17.4683 8.25661 18.2414 7.68998 18.817Z" fill="#FFD836"/>
<path d="M17.9972 11.2602C18.2477 11.2594 18.4501 11.0575 18.4494 10.8092C18.4486 10.5609 18.245 10.3602 17.9945 10.3609C17.744 10.3617 17.5416 10.5636 17.5424 10.8119C17.5431 11.0602 17.7467 11.2609 17.9972 11.2602Z" fill="#202225"/>
</g>
<defs>
<clipPath id="clip0_61_260">
<rect x="0.839844" y="0.172852" width="29.1892" height="29.1892" rx="14.5946" transform="rotate(-0.173721 0.839844 0.172852)" fill="white"/>
</clipPath>
</defs>
</svg>
