<svg width="30" height="30" viewBox="0 0 30 30" fill="none" xmlns="http://www.w3.org/2000/svg">
<g clip-path="url(#clip0_61_262)">
<rect x="0.00390625" y="0.786133" width="29.1892" height="29.1892" rx="14.5946" transform="rotate(-0.173721 0.00390625 0.786133)" fill="url(#paint0_linear_61_262)"/>
<path d="M26.5181 12.3716C28.0288 6.55392 28.7602 5.52071 32.2961 13.009L26.5181 12.3716Z" fill="#D4E1FF"/>
<path d="M12.085 24.8347L11.9463 24.9549C14.0561 26.9325 17.2681 32.0207 22.1297 31.7488C22.1297 31.7488 26.0818 38.9183 30.3077 38.1124C34.5337 37.3056 37.6512 31.3441 37.6512 31.3441C38.79 29.2864 39.594 27.0605 40.0331 24.75C39.972 24.215 39.7722 23.7985 39.3946 23.5417C36.3711 21.5476 14.2835 23.2217 12.085 24.8347Z" fill="#1C1B29"/>
<path d="M18.4534 10.0944L22.8831 11.2711C24.1984 10.7041 25.6171 10.4163 27.0495 10.4259C33.7978 10.4055 37.4072 15.8701 37.4276 22.5952C37.448 29.321 33.8718 34.8074 27.1234 34.8279C20.3743 34.8484 16.785 29.3837 16.7646 22.6578C16.7576 21.6674 16.8341 20.6783 16.9935 19.7008C17.4429 17.1199 17.3136 14.4701 16.6124 11.945C16.5442 11.6898 16.5441 11.4211 16.6123 11.1658C16.6804 10.9105 16.8143 10.6776 17.0007 10.4902C17.187 10.3029 17.4193 10.1678 17.6742 10.0983C17.9291 10.0289 18.1978 10.0275 18.4534 10.0944Z" fill="#B3CAFF"/>
<path d="M37.1978 25.513C33.9269 26.9709 30.5481 25.4528 27.2872 23.5984C23.7276 21.5657 21.429 16.3944 20.4516 14.7508C19.4743 13.1065 18.0832 12.7941 17.1237 10.3967C16.897 10.5771 16.728 10.8196 16.6372 11.0947C16.5463 11.3697 16.5378 11.6653 16.6125 11.9452C17.3131 14.4705 17.443 17.12 16.9928 19.7017C16.8335 20.6789 16.7569 21.6679 16.7639 22.658C16.7843 29.3838 20.3936 34.8484 27.1227 34.828C32.8594 34.8106 36.3011 30.8322 37.1978 25.5122L37.1978 25.513Z" fill="#8DAEF7"/>
<path d="M36.5953 23.5091C36.6111 28.7467 33.5078 33.0022 29.6764 33.0139C25.8458 33.0255 22.7359 28.7888 22.7201 23.5512C22.6938 14.9016 28.0944 21.9679 31.9258 21.9563C35.7564 21.9447 36.6716 16.0894 36.5953 23.5091Z" fill="#FCFDFF"/>
<path d="M29.7783 28.5807C30.1502 28.5482 30.4074 28.0267 30.3549 27.4154C30.3016 26.804 29.9571 26.335 29.5859 26.3666C29.2148 26.3999 28.9568 26.9214 29.0101 27.5319C29.0634 28.1433 29.4071 28.6132 29.7783 28.5807ZM34.3355 27.5536C34.4445 26.9498 34.2355 26.4064 33.8681 26.3408C33.5015 26.2744 33.1155 26.7103 33.0064 27.3141C32.8982 27.9171 33.1071 28.4605 33.4738 28.5269C33.8404 28.5933 34.2264 28.1574 34.3355 27.5536Z" fill="#1C1B29"/>
<path d="M49.8557 88.5817C47.0386 89.1857 38.5784 81.1764 38.5784 81.1764C40.9228 88.4698 41.3264 90.6511 41.7291 92.5342C42.1317 94.4182 41.8942 94.7958 41.7399 96.1254C41.5849 97.455 41.5847 97.4156 42.3837 99.0798C43.1827 100.743 43.7029 101.912 43.8638 102.765C43.9248 103.261 43.9062 103.763 43.8089 104.253L8.33779 104.36C8.33779 104.36 8.1562 103.568 8.90407 101.363C9.65194 99.1589 11.3733 97.3288 12.3213 95.9365C13.2701 94.5451 13.2111 94.6843 12.9514 94.1097C11.7519 91.296 13.6792 91.9057 14.4804 87.6773C15.2808 83.4489 15.4784 63.2914 17.2591 55.0534C19.0405 46.8145 21.7941 44.8615 21.9719 38.0563C18.6075 34.9326 10.2659 26.8032 11.9478 24.9531C13.8584 26.7328 19.5777 27.589 24.2423 27.5354C24.6514 27.5283 25.0524 27.6505 25.3882 27.8845C25.7239 28.1185 25.9772 28.4524 26.1121 28.8388C26.9133 31.2367 28.9326 35.9724 32.0871 35.3473C35.2417 34.723 37.5662 29.0813 38.2157 27.0358C38.3526 26.5894 38.6385 26.2033 39.0256 25.9421C39.448 25.6264 39.7931 25.2187 40.0345 24.7498C40.4835 28.6562 34.0237 39.0315 34.0237 39.0315C34.0237 39.0315 35.6742 53.073 38.9041 57.6853C42.1332 62.2985 51.1653 62.2711 51.3964 66.6748C51.6283 71.0777 52.6527 87.9778 49.8557 88.5817Z" fill="#BD4070"/>
<path d="M22.401 29.2077C20.0581 29.0758 16.9013 28.6884 11.832 26.1846C12.6542 29.1376 19.1251 35.3875 21.9714 38.0572C21.9349 40.1679 21.5593 42.2591 20.8587 44.2505C23.4299 47.8733 26.5197 45.503 27.1067 55.6986C27.3577 60.0427 30.571 65.8059 33.9247 72.0451C37.2785 78.2844 37.7001 66.796 37.5439 61.1425C37.4551 58.0675 36.8288 54.2604 36.1621 50.6319C34.7367 45.1406 34.0231 39.0323 34.0231 39.0323C34.0231 39.0323 38.5469 31.7575 39.7631 27.1116C39.4535 27.3054 39.2117 27.5906 39.0713 27.9269C37.8483 30.7067 36.4783 33.4195 34.9671 36.0538C33.4066 38.6975 30.4928 40.0154 27.1221 34.8281C23.7523 29.64 24.9222 29.3592 22.401 29.2077Z" fill="#A12C66"/>
<path d="M23.8405 19.4825C27.3396 21.1578 28.557 23.2972 31.3556 23.2092C34.1542 23.1211 35.2414 21.7686 36.3673 19.9604C35.9079 18.9694 34.6666 21.9488 31.9272 21.9571C29.1878 21.9654 25.604 18.3063 23.8405 19.4825Z" fill="#8DAEF7"/>
</g>
<defs>
<linearGradient id="paint0_linear_61_262" x1="14.5985" y1="30.1077" x2="14.5985" y2="9.19939" gradientUnits="userSpaceOnUse">
<stop stop-color="#7196FF"/>
<stop offset="1" stop-color="#2A5EE8"/>
</linearGradient>
<clipPath id="clip0_61_262">
<rect x="0.00390625" y="0.786133" width="29.1892" height="29.1892" rx="14.5946" transform="rotate(-0.173721 0.00390625 0.786133)" fill="white"/>
</clipPath>
</defs>
</svg>
