<svg width="30" height="30" viewBox="0 0 30 30" fill="none" xmlns="http://www.w3.org/2000/svg">
<g clip-path="url(#clip0_61_259)">
<rect x="0.242188" y="0.135742" width="29.1892" height="29.1892" rx="14.5946" transform="rotate(-0.173721 0.242188 0.135742)" fill="#3442D9"/>
<path d="M6.75257 11.587C5.89299 8.76671 5.43225 7.41891 6.96573 6.58399C8.4992 5.74906 13.1711 6.29533 15.3522 6.80764C17.5332 7.31995 17.8462 7.85868 16.4205 10.001L6.75257 11.587Z" fill="#FFF4B3"/>
<path d="M5.8324 36.9762C5.47487 28.5915 5.66129 21.6166 5.91986 17.9003C4.5264 16.9913 3.8808 16.2875 3.60977 15.8939C3.5535 15.8181 3.52457 15.7254 3.52823 15.631C3.53168 15.5367 3.56711 15.4463 3.62895 15.375C5.82079 12.6076 7.70235 10.1941 9.67083 9.06731C11.6393 7.94047 14.3368 7.64169 18.6464 11.9045C18.6877 11.9591 18.7082 12.0266 18.7047 12.0949C18.7011 12.1634 18.6735 12.2283 18.6268 12.2782C18.2866 12.618 17.9272 12.9379 17.5503 13.2363C18.4268 14.7904 19.7001 17.1528 19.7001 17.1528L20.6965 17.1498C21.3349 17.1479 21.9482 17.3997 22.4011 17.85C22.8541 18.3 23.1096 18.9116 23.1115 19.5503C23.1381 21.4806 22.6886 23.8067 21.8051 26.7984C25.8002 30.0243 24.8454 36.8977 24.8454 36.8977L5.8324 36.9762Z" fill="#29CC7A"/>
<path d="M21.8052 26.798C21.9284 26.3618 22.0518 25.967 22.1543 25.5516L19.0253 27.3046C19.0253 27.3046 14.0544 23.9778 5.72464 21.9274C5.59105 25.7886 5.58615 31.0193 5.83254 36.9758L24.8456 36.9181C24.8456 36.9181 25.8003 30.024 21.8052 26.798Z" fill="#8CD9FF"/>
<path d="M22.5968 27.5638C22.3539 27.2879 22.0893 27.0319 21.8057 26.7982C21.9289 26.362 22.0522 25.9672 22.1548 25.5518L19.0258 27.3048C19.0258 27.3048 14.0548 23.978 5.72511 21.9276C5.7058 22.4051 5.68661 22.9241 5.68819 23.443C12.0685 26.0597 15.507 30.5743 15.9207 36.9454L20.6325 36.9311C21.4517 33.2754 22.1062 30.0769 22.5968 27.5638Z" fill="#BAE8FF"/>
<path d="M8.23035 19.4918L8.31337 19.4915C8.35476 19.4499 8.39621 19.429 8.41678 19.3667L10.2049 13.5286C10.2169 13.504 10.2237 13.4773 10.2242 13.4499C10.2247 13.4227 10.2195 13.3955 10.2084 13.3706C10.1975 13.3455 10.1811 13.3232 10.1607 13.3052C10.1401 13.2872 10.1159 13.274 10.0896 13.2664C10.0634 13.2588 10.0358 13.257 10.0088 13.261C9.98182 13.2652 9.95611 13.2753 9.93333 13.2905C9.91075 13.3057 9.89171 13.3257 9.87746 13.3492C9.86341 13.3725 9.85457 13.3987 9.85174 13.4259L8.1253 19.077C7.37107 18.7579 6.64735 18.3709 5.96309 17.9211L5.92158 17.9213C5.92195 18.0458 5.90164 18.1912 5.90201 18.3157C6.62055 18.7749 7.37896 19.1687 8.16808 19.492L8.23035 19.4918Z" fill="black"/>
<path d="M15.9231 10.0859L8.49382 10.6481C16.8013 12.2004 17.1548 12.4277 15.9231 10.0859Z" fill="black"/>
<path d="M14.0826 15.49C14.3691 15.3733 14.4191 14.831 14.1941 14.2789C13.9691 13.7271 13.5545 13.3742 13.2678 13.4909C12.9811 13.6078 12.9313 14.1499 13.1563 14.702C13.3811 15.2541 13.7959 15.6069 14.0826 15.49Z" fill="black"/>
<path d="M16.2246 16.6321C16.5926 15.9319 16.5455 15.1827 16.1193 14.9588C15.6931 14.7347 15.0493 15.1208 14.6812 15.8208C14.3132 16.521 14.3605 17.2702 14.7865 17.4943C15.2127 17.7183 15.8566 17.3323 16.2246 16.6321Z" stroke="white" stroke-miterlimit="10"/>
<path d="M19.2811 16.6262C19.6491 15.9262 19.602 15.177 19.1758 14.9529C18.7496 14.7289 18.1058 15.1149 17.7379 15.8151C17.3699 16.5153 17.417 17.2645 17.8432 17.4884C18.2694 17.7123 18.9131 17.3264 19.2811 16.6262Z" stroke="white" stroke-miterlimit="10"/>
<path d="M17.1789 15.3811C17.3701 15.3033 17.3497 14.81 17.1333 14.279C16.917 13.7483 16.5867 13.3811 16.3956 13.4591C16.2046 13.5369 16.225 14.0302 16.4413 14.5612C16.6577 15.0919 16.988 15.4591 17.1789 15.3811Z" fill="black"/>
<path d="M19.1722 20.8075C17.5696 20.8175 16.0128 20.2722 14.7671 19.2641C13.4769 18.2094 13.9955 18.0833 14.8049 18.06C15.6144 18.0368 19.4963 18.1704 20.6177 18.333C21.739 18.4957 21.9533 20.716 19.1722 20.8075Z" fill="#912869"/>
<path d="M19.1722 20.8075C17.5696 20.8175 16.0128 20.2722 14.7671 19.2641C13.4769 18.2094 13.9955 18.0833 14.8049 18.06C15.6144 18.0368 19.4963 18.1704 20.6177 18.333C21.739 18.4957 21.9533 20.716 19.1722 20.8075Z" fill="#611B46"/>
<path d="M19.0966 23.1319L19.0112 22.3641C19.5974 22.3156 20.1684 22.1516 20.6911 21.8816" stroke="black" stroke-linecap="round" stroke-linejoin="round"/>
<path d="M19.9396 20.7007C18.8154 19.6248 17.2978 18.8199 14.4962 19.0152C16.9107 21.2288 19.4211 20.8476 19.9396 20.7007Z" fill="#EB459F"/>
<path d="M16.3555 15.8965L17.6216 15.8926" stroke="white" stroke-miterlimit="10"/>
<path d="M14.4456 16.151L9.08374 13.9878C8.97132 13.9446 8.85005 13.9294 8.73053 13.943C8.61081 13.9569 8.49636 13.9994 8.39652 14.0669C8.29688 14.1345 8.21496 14.2252 8.15799 14.3312C8.10082 14.4373 8.07025 14.5555 8.06875 14.6759C8.06668 14.8176 8.10737 14.9566 8.18557 15.0749C8.26356 15.193 8.37551 15.285 8.50665 15.3388L8.86002 15.5037" stroke="white" stroke-miterlimit="10" stroke-linecap="round"/>
<path d="M13.3169 13.4356C13.7381 13.4451 14.1585 13.3878 14.5618 13.2658" stroke="black" stroke-miterlimit="10" stroke-linecap="round"/>
<path d="M16.4302 13.4258C16.6957 13.4319 16.9589 13.3742 17.1977 13.2574" stroke="black" stroke-miterlimit="10" stroke-linecap="round"/>
<path d="M7.4564 10.8589C14.8662 10.7326 17.3753 9.89474 19.4901 9.12033C21.605 8.34591 21.3956 7.7446 19.7767 7.81177C18.1579 7.87895 12.6223 10.0129 7.4564 10.8589Z" fill="#FFF4B3"/>
<path d="M7.45684 10.8586L9.98853 10.6434L16.0666 9.42105L14.5468 7.93116L7.30273 7.95312L7.45684 10.8586Z" fill="#FFF4B3"/>
<path d="M19.7462 18.481L18.293 18.4023C18.4617 19.2736 18.8782 19.729 19.2306 19.5826C19.583 19.4363 19.7052 18.6679 19.7462 18.481Z" fill="white"/>
<path d="M15.2617 18.3076C15.4515 19.3034 15.8267 19.8212 16.1791 19.654C16.5315 19.4869 16.612 18.6564 16.6732 18.3241L15.2617 18.3076Z" fill="white"/>
<path d="M16.9133 8.4432C13.7167 9.31001 10.4762 10.0058 7.20545 10.5276" stroke="#FFC619" stroke-width="2" stroke-miterlimit="10" stroke-linecap="round"/>
</g>
<defs>
<clipPath id="clip0_61_259">
<rect x="0.242188" y="0.135742" width="29.1892" height="29.1892" rx="14.5946" transform="rotate(-0.173721 0.242188 0.135742)" fill="white"/>
</clipPath>
</defs>
</svg>
