<svg width="19" height="16" viewBox="0 0 19 16" fill="none" xmlns="http://www.w3.org/2000/svg">
<path d="M18.375 2.59375C18.375 2.6875 18.9688 5.25 17.25 7.6875C16.0625 9.4375 14.0938 10.6562 11.375 11.375C10.8125 11.5312 10.4062 12.0625 10.4062 12.6562C10.4062 13.4062 11 14 11.75 14H11.9062C12.7188 14 13.4062 14.6875 13.4062 15.5C13.4062 15.7812 13.2188 16 12.9375 16H5.96875C5.71875 16 5.5 15.7812 5.5 15.5C5.5 14.6875 6.15625 14 7 14H7.125C7.875 14 8.5 13.4062 8.46875 12.6562C8.46875 12.0625 8.09375 11.5312 7.5 11.375C4.78125 10.6562 2.8125 9.4375 1.65625 7.6875C0 5.25 0.59375 2.6875 0.59375 2.59375C0.6875 2.25 1 2 1.34375 2H4.5C4.46875 1.625 4.46875 1.28125 4.5 0.96875C4.5 0.4375 4.9375 0 5.5 0H13.4688C14.0312 0 14.4688 0.4375 14.4688 0.96875C14.5 1.28125 14.5 1.625 14.4688 2H17.625C17.9688 2 18.2812 2.25 18.375 2.59375ZM2.90625 6.875C3.625 7.96875 4.78125 8.8125 6.3125 9.4375C5.15625 7.625 4.6875 5.375 4.5 3.5H2C1.96875 4.25 2.03125 5.59375 2.90625 6.875ZM16.0625 6.875C16.9375 5.59375 17 4.25 16.9688 3.5H14.4688C14.2812 5.375 13.8125 7.625 12.6562 9.4375C14.1875 8.8125 15.3438 7.96875 16.0625 6.875Z" fill="#828282" fill-opacity="0.25"/>
</svg>
