<svg width="1201" height="569" viewBox="0 0 1201 569" fill="none" xmlns="http://www.w3.org/2000/svg">
<path d="M1021 559C1115.06 559 1191 481.369 1191 386C1191 290.631 1115.06 213 1021 213C926.937 213 851 290.631 851 386C851 481.369 926.937 559 1021 559Z" stroke="url(#paint0_linear_1193_3729)" stroke-width="20"/>
<path d="M180 477C204.377 477 240.105 465.618 278.855 448.322C318.052 430.826 361.769 406.616 402.65 379.601C443.491 352.612 481.841 322.599 510.111 293.403C524.243 278.808 536.072 264.196 544.422 250.061C552.715 236.023 558 221.739 558 208C558 178.928 535.058 161.08 506.483 150.207C477.461 139.163 438.537 133.53 397.815 130.764C339.545 126.807 275.108 128.641 227.386 129.999C208.5 130.537 192.232 131 180 131C85.9373 131 10 208.63 10 304C10 399.369 85.9373 477 180 477Z" stroke="url(#paint1_linear_1193_3729)" stroke-width="20"/>
<path d="M787.738 79.6847L792.647 70.0925L787.354 69.0203C786.473 59.8539 784.077 51.7048 780.152 44.5826C775.065 35.3533 767.717 28.4077 758.938 23.3069C741.768 13.3303 718.871 10.2703 694.981 10.0173C670.849 9.7617 644.049 12.3939 618.258 15.0104C617.304 15.1072 616.352 15.2039 615.401 15.3005C590.361 17.8438 566.425 20.2749 545.738 20.2749C530.782 20.2749 521.017 19.239 515.055 18.1443C512.632 16.4848 510.282 15.319 508.14 14.573C506.691 14.0685 504.78 13.5669 502.729 13.5686C501.852 13.5693 499.816 13.6458 497.635 14.7572C496.44 15.366 494.839 16.4761 493.61 18.401C492.299 20.4523 491.842 22.7643 492.048 24.9007C492.4 28.5588 494.546 30.7944 495.199 31.4447C496.144 32.3868 497.128 33.0471 497.852 33.4805C499.345 34.3734 501.074 35.0923 502.857 35.6902C503.825 36.0148 504.907 36.3362 506.113 36.6493C511.693 41.9553 520.238 55.1142 520.238 85.2753C520.238 180.645 596.175 258.275 690.238 258.275C713.871 258.275 732.61 252.843 747.079 242.297C761.533 231.762 770.71 216.863 776.582 199.785C787.757 167.281 787.748 124.115 787.739 81.0169C787.738 80.5729 787.738 80.1288 787.738 79.6847ZM501.519 33.4458C501.474 33.4345 501.45 33.4268 501.45 33.4258C501.45 33.4248 501.472 33.4304 501.519 33.4458Z" stroke="url(#paint2_linear_1193_3729)" stroke-width="20"/>
<path d="M591.743 351.915C591.876 331.053 595.065 313.551 598.614 298.851C599.991 293.144 601.4 287.945 602.732 283.028C603.173 281.404 603.604 279.81 604.024 278.239C605.666 272.091 607.164 266.14 607.911 260.754C608.653 255.413 608.815 249.639 606.998 244.168C605.046 238.288 601.137 233.718 595.573 230.486C590.338 227.446 583.787 225.664 576.246 224.578C568.613 223.478 559.27 223 548 223C503.518 223 434.223 226.442 375.747 241.443C346.564 248.929 319.253 259.493 299.033 274.564C278.567 289.818 264.738 310.25 264.738 336.775C264.738 386.299 300.368 435.733 345.044 472.044C389.917 508.514 446.958 534.275 494.238 534.275C517.871 534.275 536.611 528.843 551.08 518.297C565.533 507.762 574.71 492.863 580.582 475.785C591.758 443.281 591.748 400.114 591.739 357.017C591.739 356.573 591.739 356.129 591.739 355.685L592.424 354.345L591.743 351.915Z" stroke="url(#paint3_linear_1193_3729)" stroke-width="20"/>
<defs>
<linearGradient id="paint0_linear_1193_3729" x1="840.243" y1="412.432" x2="1181.83" y2="323.077" gradientUnits="userSpaceOnUse">
<stop stop-color="#1B3A5A"/>
<stop offset="1" stop-color="#163553"/>
</linearGradient>
<linearGradient id="paint1_linear_1193_3729" x1="-0.756749" y1="330.432" x2="340.826" y2="241.077" gradientUnits="userSpaceOnUse">
<stop stop-color="#183048"/>
<stop offset="1" stop-color="#19324B"/>
</linearGradient>
<linearGradient id="paint2_linear_1193_3729" x1="509.482" y1="111.708" x2="851.064" y2="22.3523" gradientUnits="userSpaceOnUse">
<stop stop-color="#1A344E"/>
<stop offset="1" stop-color="#173452"/>
</linearGradient>
<linearGradient id="paint3_linear_1193_3729" x1="313.482" y1="387.708" x2="655.064" y2="298.352" gradientUnits="userSpaceOnUse">
<stop stop-color="#1A3550"/>
<stop offset="1" stop-color="#1D3D5C"/>
</linearGradient>
</defs>
</svg>
