<svg width="14" height="14" viewBox="0 0 14 14" fill="none" xmlns="http://www.w3.org/2000/svg">
<path d="M6.41732 13.0833C6.26454 12.9306 6.18454 12.7361 6.17732 12.5C6.1701 12.2639 6.24315 12.0694 6.39649 11.9167L10.4798 7.83333H1.16732C0.931209 7.83333 0.733154 7.75333 0.573154 7.59333C0.413154 7.43333 0.333432 7.23556 0.333987 7C0.333987 6.76389 0.413987 6.56583 0.573987 6.40583C0.733987 6.24583 0.931765 6.16611 1.16732 6.16667H10.4798L6.39649 2.08333C6.24371 1.93056 6.17065 1.73611 6.17732 1.5C6.18399 1.26389 6.26399 1.06944 6.41732 0.916666C6.5701 0.763889 6.76454 0.6875 7.00065 0.6875C7.23677 0.6875 7.43121 0.763889 7.58399 0.916666L13.084 6.41667C13.1673 6.48611 13.2265 6.57306 13.2615 6.6775C13.2965 6.78194 13.3137 6.88944 13.3132 7C13.3132 7.11111 13.2959 7.21528 13.2615 7.3125C13.227 7.40972 13.1679 7.5 13.084 7.58333L7.58399 13.0833C7.43121 13.2361 7.23677 13.3125 7.00065 13.3125C6.76454 13.3125 6.5701 13.2361 6.41732 13.0833Z" fill="#00CCFF"/>
</svg>
